REM DIRINDEX 1\2,1\3,1\4,1\5,1\6,1\7,1\8
REM DIRNAME folder01,folder02,folder03,folder04,folder05,folder06,folder07,folder08
TITLE ""
FILE "004 ‚Å‚é•¶24.mp3" MP3
  TRACK 01 AUDIO
    TITLE "8:cjc150_1052"
    INDEX 01 00:00:00
  TRACK 02 AUDIO
    TITLE "0:"
    INDEX 01 00:01:46
  TRACK 03 AUDIO
    TITLE "2:cjc150_1053"
    INDEX 01 00:02:28
  TRACK 04 AUDIO
    TITLE "0:"
    INDEX 01 00:08:21
  TRACK 05 AUDIO
    TITLE "8:cjc150_1054"
    INDEX 01 00:09:44
  TRACK 06 AUDIO
    TITLE "0:"
    INDEX 01 00:12:20
  TRACK 07 AUDIO
    TITLE "3:cjc150_1055"
    INDEX 01 00:12:67
  TRACK 08 AUDIO
    TITLE "3:cjc150_1056"
    INDEX 01 00:14:31
  TRACK 09 AUDIO
    TITLE "3:cjc150_1057"
    INDEX 01 00:15:64
  TRACK 10 AUDIO
    TITLE "3:cjc150_1058"
    INDEX 01 00:17:55
  TRACK 11 AUDIO
    TITLE "3:cjc150_1059"
    INDEX 01 00:19:50
  TRACK 12 AUDIO
    TITLE "3:cjc150_1060"
    INDEX 01 00:21:17
  TRACK 13 AUDIO
    TITLE "3:cjc150_1061"
    INDEX 01 00:22:46
  TRACK 14 AUDIO
    TITLE "3:cjc150_1062"
    INDEX 01 00:24:12
  TRACK 15 AUDIO
    TITLE "3:cjc150_1063"
    INDEX 01 00:25:45
  TRACK 16 AUDIO
    TITLE "3:cjc150_1064"
    INDEX 01 00:27:57
  TRACK 17 AUDIO
    TITLE "8:cjc150_1065"
    INDEX 01 00:29:56
  TRACK 18 AUDIO
    TITLE "0:"
    INDEX 01 00:32:33
  TRACK 19 AUDIO
    TITLE "4:cjc150_1066"
    INDEX 01 00:33:11
  TRACK 20 AUDIO
    TITLE "4:cjc150_1067"
    INDEX 01 00:35:53
  TRACK 21 AUDIO
    TITLE "4:cjc150_1068"
    INDEX 01 00:38:47
  TRACK 22 AUDIO
    TITLE "4:cjc150_1069"
    INDEX 01 00:40:19
  TRACK 23 AUDIO
    TITLE "4:cjc150_1070"
    INDEX 01 00:42:18
  TRACK 24 AUDIO
    TITLE "4:cjc150_1071"
    INDEX 01 00:45:16
  TRACK 25 AUDIO
    TITLE "8:cjc150_1072"
    INDEX 01 00:48:53
  TRACK 26 AUDIO
    TITLE "0:"
    INDEX 01 00:51:48
  TRACK 27 AUDIO
    TITLE "5:cjc150_1073"
    INDEX 01 00:52:32
  TRACK 28 AUDIO
    TITLE "5:cjc150_1074"
    INDEX 01 00:54:44
  TRACK 29 AUDIO
    TITLE "5:cjc150_1075"
    INDEX 01 00:56:59
  TRACK 30 AUDIO
    TITLE "5:cjc150_1076"
    INDEX 01 00:58:24
  TRACK 31 AUDIO
    TITLE "5:cjc150_1077"
    INDEX 01 00:59:43
  TRACK 32 AUDIO
    TITLE "5:cjc150_1078"
    INDEX 01 01:01:11
  TRACK 33 AUDIO
    TITLE "5:cjc150_1079"
    INDEX 01 01:03:65
  TRACK 34 AUDIO
    TITLE "5:cjc150_1080"
    INDEX 01 01:05:52
  TRACK 35 AUDIO
    TITLE "5:cjc150_1081"
    INDEX 01 01:07:39
  TRACK 36 AUDIO
    TITLE "5:cjc150_1082"
    INDEX 01 01:09:59
  TRACK 37 AUDIO
    TITLE "5:cjc150_1083"
    INDEX 01 01:12:05
  TRACK 38 AUDIO
    TITLE "5:cjc150_1084"
    INDEX 01 01:13:45
  TRACK 39 AUDIO
    TITLE "5:cjc150_1085"
    INDEX 01 01:14:74
  TRACK 40 AUDIO
    TITLE "5:cjc150_1086"
    INDEX 01 01:16:36
  TRACK 41 AUDIO
    TITLE "5:cjc150_1087"
    INDEX 01 01:18:53
  TRACK 42 AUDIO
    TITLE "5:cjc150_1088"
    INDEX 01 01:20:18
  TRACK 43 AUDIO
    TITLE "5:cjc150_1089"
    INDEX 01 01:21:53
  TRACK 44 AUDIO
    TITLE "5:cjc150_1090"
    INDEX 01 01:24:06
  TRACK 45 AUDIO
    TITLE "5:cjc150_1091"
    INDEX 01 01:26:74
  TRACK 46 AUDIO
    TITLE "5:cjc150_1092"
    INDEX 01 01:29:13
  TRACK 47 AUDIO
    TITLE "8:cjc150_1093"
    INDEX 01 01:31:14
  TRACK 48 AUDIO
    TITLE "0:"
    INDEX 01 01:33:72
  TRACK 49 AUDIO
    TITLE "6:cjc150_1094"
    INDEX 01 01:34:63
  TRACK 50 AUDIO
    TITLE "6:cjc150_1095"
    INDEX 01 01:37:24
  TRACK 51 AUDIO
    TITLE "6:cjc150_1096"
    INDEX 01 01:40:48
  TRACK 52 AUDIO
    TITLE "6:cjc150_1097"
    INDEX 01 01:43:17
  TRACK 53 AUDIO
    TITLE "6:cjc150_1098"
    INDEX 01 01:45:42
  TRACK 54 AUDIO
    TITLE "6:cjc150_1099"
    INDEX 01 01:47:60
  TRACK 55 AUDIO
    TITLE "6:cjc150_1100"
    INDEX 01 01:50:15
  TRACK 56 AUDIO
    TITLE "6:cjc150_1101"
    INDEX 01 01:51:58
  TRACK 57 AUDIO
    TITLE "6:cjc150_1102"
    INDEX 01 01:53:21
  TRACK 58 AUDIO
    TITLE "6:cjc150_1103"
    INDEX 01 01:56:41
  TRACK 59 AUDIO
    TITLE "6:cjc150_1104"
    INDEX 01 02:00:45
  TRACK 60 AUDIO
    TITLE "6:cjc150_1105"
    INDEX 01 02:03:43
  TRACK 61 AUDIO
    TITLE "8:cjc150_1106"
    INDEX 01 02:06:06
  TRACK 62 AUDIO
    TITLE "0:"
    INDEX 01 02:07:55
  TRACK 63 AUDIO
    TITLE "7:cjc150_1107"
    INDEX 01 02:08:50
  TRACK 64 AUDIO
    TITLE "7:cjc150_1108"
    INDEX 01 02:14:45
  TRACK 65 AUDIO
    TITLE "0:"
    INDEX 01 02:20:30
